<?xml version="1.0" encoding="utf-8"?>
<!-- Generator: Adobe Illustrator 20.1.0, SVG Export Plug-In . SVG Version: 6.00 Build 0)  -->
<svg version="1.1" xmlns="http://www.w3.org/2000/svg" xmlns:xlink="http://www.w3.org/1999/xlink" x="0px" y="0px"
	 viewBox="0 0 1279 862.6" style="enable-background:new 0 0 1279 862.6;" xml:space="preserve">
<style type="text/css">
	.st0{display:none;}
	.st1{display:inline;fill:#ACDBEE;}
	.st2{display:inline;}
	.st3{fill:#F5F2EA;}
	.st4{fill:#ACDBEE;}
	.st5{fill:#EB6100;}
	.st6{display:inline;fill:#EB6100;}
	.st7{fill:#5FAD6A;}
	.st8{fill:#EA5514;}
</style>
<g id="圖層_1" class="st0">
	<rect x="-0.8" y="0" class="st1" width="1279.5" height="686"/>
	<g class="st2">
		<path class="st3" d="M248.1,409.6c-0.1,0.3,0.1,0.8,0.1,1.2c0,1.1,0,2.2-0.1,3.2c-1.9-0.8-3.3-0.6-3.4,1.9c-0.9-0.8-1.8-1.2-3-1
			l0,0c0.2-2.6-2-2-3.3-2.5c-1.1-0.4-2.3,0.4-3.3-1.3c-0.5-1-2.3-0.1-2.9,1.2c-0.3,0.9-0.8,1.5-1.7,1.4c-3.3-0.4-5.8,1.8-8.6,2.9
			c-0.7,0.3-4.5-1.3-4.5-2c0-1.1,0.9-1.3,1.7-1.6c0.9-0.3,2-0.6,2.1,0.9c0.2,1.9,1.1,1.3,2.2,0.9c3.7-1.5,6.7-4.2,10.5-5.4
			c-0.3-0.7-0.8-0.6-1.1-0.5c-2.5,0.9-4.8,0.7-6.9-1.2c-1-0.9-2.3-1.3-3.7-0.3c-1.1,0.7-2.2,0.2-2.8-0.7c-1.2-1.8-3.9-2.3-5.4-0.7
			c-0.8,0.9-2.1,1.1-2.7,0.6c-1.7-1.6-3.5-0.8-5.3-0.5c-1,0.2-2,0.4-2.7-0.7c-0.7-1-0.6-1.9,0.1-2.8c1.3-1.7,1.4-3-0.2-4.9
			c-2-2.4,0.3-6.3,3.4-6.3c2.4,0,4.7,0,7.7,0c-5.3-6-9-12.3-10.7-19.6c-0.8-3.5-2.4-4.4-6.1-4.1c-1.3,0.1-2.5,0.4-3.7-0.9
			c-1.3-1.4-2.9-0.4-4.2,0.2c-0.8,0.4-1.3,1.2-2.4,1.4c-0.7,0.1-0.6,0.9-0.3,1.4c0.5,1.1,1.4,1.4,2.5,1c0.6-0.2,1.1-1.3,1.9-0.4
			c0.6,0.7,0.4,1.6,0.1,2.4c-0.6,1.2-0.1,1.8,1.1,1.6c2.3-0.4,2.6,1.3,3,2.8c0.4,1.6-0.8,2.5-2,3c-1.1,0.5-2.1,1-2.9,1.9
			c-1.3,1.6-2.1,1-3-0.4c-0.7-1.1-1.2-2.7-2.8-2.9c-0.2-0.2-0.4-0.5-0.7-0.1c0.2,0.1,0.4,0.2,0.6,0.3c0.4,1.5,2.5,2.7,0.7,4.6
			c-0.5,0.5,0.2,1.5,1,1.7c1.8,0.4,2.8,0.9,2,3.1c-0.3,0.8,0.3,1.9,0.5,2.9c0.1,0.7,0.6,1.6-0.5,1.9c-1.2,0.3-0.9-0.8-1.1-1.5
			c-0.5-1.2-0.1-2.8-1-4.1c-0.8,1-0.4,1.9-0.2,2.7c0.3,1.8,1.1,3.7-0.4,5.4c-0.6,0.7,0.1,1.3,0.3,2c0.3,1.1,1.2,2.8-1.5,2.3
			c-2.3-0.4-2,2-2.4,3.1c-0.4,1.2,0.3,2.9,1.9,3.6c2.1,0.9,3.9,0.8,5.3-1.3l0,0c0.1,1.1-0.4,2.3,0.7,3.3c0.4,0.4,0.3,1-0.4,1.1
			c-1.7,0.2-1.9,1.3-1.8,2.7c0.1,1.4-1.1,2-1.6,3c-1.6-0.2-3.1,0.3-2.9,2.1c0.2,2,1.7,2.2,3.3,1.6c0.2,1.3,0.1,2.3-1.5,2.9
			c-1.2,0.4-9.3,3-14.8,5.3c-1.6,1.1-3.2,2.3-4.8,3.5c-0.7,0.5-0.5,1.2-0.2,1.8c0.6,1.7,1.3,3.4,1.9,5.1c0.1,0.3,0.3,0.8,0.5,0.8
			c3.7-0.2,1.1,2,1,2.9c0,1.2-0.5,2.5-1.2,3.6c-1.3,2.1-6.4,2.4-8.1,0.6c-0.3-0.3-0.6-0.7-0.6-1.1c0.5-2.7-2.2-4-2.7-6.4
			c-0.5,1.1-0.3,2.4-1.8,3c-1,0.4-0.6,1.8-0.5,2.8c0.2,1.2,0.2,1.9-1.3,1.9c-1.3-0.1-2,0.9-2.4,1.9c-0.4,1,0.7,1.4,1.2,2
			c1.1,1.1,2,2.4,3.9,2.2c0.9-0.1,1.3,0.6,1.4,1.4c0.2,1.6-0.4,2.9-1,4.3c-0.1,0.3-0.5,0.6-0.7,0.6c-1.6,0.1-2.9-0.9-4.1-1.6
			c-1-0.6,0-1.6,0.3-2.4c1.1-2.9,0.4-3.6-2.6-3.6c-1,0-2.4-0.5-2.9-1.9c-0.9-2.6-2.6-4.8-4.2-7c-0.8-1.1-1.3-2.2-1.1-3.5
			c0.2-1.8-0.7-2.7-2.2-3.4c-1.3-0.6-2.5-1.4-3.7-2c-0.7-0.3-1.4-1.3-2.2-0.4c-0.7,0.9-2.1,1.3-2,3c0.3,3.3,0.3,6.6,0.5,9.9
			c0.1,1.7,0.3,3.4,1.1,5c0.2,0.4,0.5,0.8,0.2,1.1c-1.7,2.8-2.4,6.4-6.1,7.7c-1.4,0.5-3.2,0.6-4.2,2.1c-0.3,0.4-0.7,0.3-1.1,0.1
			c-1.6-0.6-3.9-3.8-3.9-5.6c-0.1-3.1-0.4-3.4-3.5-3.5c-1.6,0-3.2-0.1-4.7,0c-2.4,0.1-3.8,1.7-3.6,4c0.1,1,0,1.5-1.1,1.2
			c-0.6-0.2-1.3,0-1.6,0.4c-2.2,3.2-7.3,4.1-7.1,9.2c0.1,1.4-1.4,1.5-2.2,2.2c-1.9,1.7-4.5,3-6.8,1.7c-2.5-1.4-5-2.8-7.5-4
			c-3.7-1.7-6.1-4-5.9-8.3c0-0.5-0.2-1-0.9-0.9c-0.8,0.1-0.3,0.8-0.4,1.2c-0.5,2.6,0.9,5.1,0.5,7.8c-0.2,1.1,0.2,2.3,0.2,3.5
			c-0.2,3.5-0.6,3.7-4.1,4.5c-2.6,0.6-5.1,1.7-7.7,2.6c-1,0.4-1.9,0.5-2.9-0.1c-1.9-1.2-3.3-3-5.3-4c-1.1-0.6-0.6-2.2-0.6-3.3
			c0.1-2.2-1-3.2-3.1-3.3c-2.2-0.1-4.4-0.1-6.5,1.2c-1.8,1-3.8,1-5.8,0.3c-1.1-0.4-2.4-0.8-1.4,1.3c0.4,1-0.5,1-1,1.3
			c-3.6,1.8-6.9,4-9.5,7.1c-0.5,0.6-1.1,1-1.1,1.9c0,0,0,0,0,0c-0.9,0.2-1.8,0.3-2.7,0.6c-4,0.9-6-1.1-6.2-5.2
			c-0.1-1.6-2.1-3.3-3.6-4.6C10,470,10,472,8.6,471.9c-2.2-0.1-4-1.1-6-1.6c-0.5-0.1-0.9-0.5-1.6,0c1.7,2.1,3,4.6,6.1,4.9
			c2.4,0.2,3.8,2.1,5.6,3.3c0.8,0.5,0.1,1.2-0.4,1.6c-1,0.8-0.9,2-1.4,2.9c-0.7,1.3-1,3.3-3.2,3.5c-4.4,0.4-6.8,3-7.4,7.5
			c-0.1,0.9-0.3,1.8-0.9,2.5V0c130.5,0,776,0.5,776.5,0.5c0,1.1,0.8,1.6,1.5,2.2c0.4,0.3,1.4,0.2,1.1,1c-0.2,0.5-0.6,1.2-1.5,1
			c-2.2-0.4-1.6,1.1-1.2,2.2c0.4,1.1,0.9,2.1,1.6,3c0.7,0.9,0.6,1.7-0.1,2.4c-0.6,0.7-1.1,1.4-2.2,0.5c-1.5-1.2-2.4,0.6-3.7,0.9
			c2.5,0.6,3.8,2.8,6.1,3.7c1.3,0.5,2.2,0.7,3.5,0.1c1.8-1,3.4-0.2,3.4,1.7c0,1.6-0.2,3.4-0.9,4.8c-0.6,1.2-1.2,2.4-1.4,3.7
			c-0.2,1.8-1.5,2.1-2.8,2.2c-3.7,0.2-4.5,0.9-4.8,4.6c0,0.5-0.1,1-0.2,1.4c-0.8,0.5-0.9-0.2-1.3-0.5c-0.5-0.3-1-0.5-1.3,0.1
			c-0.4,0.6,0,1.3,0.6,1.4c4.4,0.5,2.4,3.7,2.6,5.9c0,0.8-0.7,1.7,0.3,2.2c1.1,0.7,0.5,1.1,0,1.7c-1.1,1.5-2.1,3-2.1,4.9
			c0,1.7-1.4,1.7-2.3,1.4c-3.1-1-6,0.3-9,0.5c-1.8,0.1-1.8,1.8-2.1,3c-0.4,1.4,0.4,2.7,1.6,3.3c1.1,0.6,2.3,1.3,3.8,1.1
			c-0.5,0.3-1,0.6-2.1,1.2c2.6,0,4.6,0,6.6,0c3.1,0.1,4.4,1.4,4.4,4.4c0,2.7,0.2,5.5-0.1,8.2c-0.2,1.8,0.9,2.5,2.1,2.3
			c1.9-0.2,4.1-0.2,5.3-2.5c1.1-2.1,3.5-1.6,5.7-1.9c-2.1-1.8-3.4-3.5-1.2-5.9c0.6-0.7,0-2.1-1.2-2.1c-0.9,0-1.7,0.6-2.3-0.7
			c-0.5-1.3,0.4-2.6,1-2.9c2.3-1.3,4.4-3,6.6-4.4c0.2-0.1,0.5,0,0.7,0c0.5,0.5,0,0.8-0.1,1.1c-0.8,2,0.2,3.4,2.4,3.4
			c1.1,0,2.2,0.3,2.8,1.3c0.7,1.1-0.6,1.6-0.9,2.6c1.9,0.5,3.1,2.5,5.6,2.2c-0.8,0.9-1,2.6-2.7,1.1c-1.3-1.1-2.6,0.1-3.3,1.2
			c-1.8,2.8-0.8,5.3,2.3,6.5c0.5,0.2,1,0.3,1.4,0.4l0,0c-0.1,0.2-0.3,0.6-0.3,0.6c-3.2-0.8-5.3,1.7-7.9,2.8c-1.5,0.6-2,1.8-0.4,3
			c0.4,0.3,0.9,0.4,0.5,1c-0.3,0.4-0.8,0.6-1.1,0.3c-1.9-1.6-4.6-2.1-6.2-4.1c-0.6-0.8,0.4-0.4,0.7-0.6c0.1,0,0.2,0.1,0.3,0.1
			c0-0.1-0.1-0.2-0.1-0.3c-0.6-3.3-1-3.5-3.9-2.5c-2.1,0.7-3.8,1.8-4.8,3.9c1,1,3.6,0.3,3.5,2.5c-0.1,2.1-0.6,4.3-2.9,5.3
			c0.1,1,1.3,0.6,1.8,1.3c-1.3,0.8-2.5,0.4-3.7,0.2c0.3-1.4-1-2.3-0.8-3.9c0.3-2.3-0.3-4.7-1.4-6.9c-0.4-0.7-1.1-1.4-2-0.9
			c-1.1,0.6-2.3,1.3-2.4,2.7c-0.1,1,0.9,1.2,1.8,1.2c0.9,0.1,1.5,0.6,1.2,1.5c-0.4,1.4-1.1,2.8-2.8,2.8c-1.7,0-3.3,0.3-4.6,1.3
			c-0.4-0.3-0.3-0.5-0.1-0.7c2.5-1.8,2.9-3.7,0.6-5.9c-0.3-0.2-0.5-0.9-0.3-1.1c1.3-2.4-0.8-2.4-1.8-2c-2.1,0.8-2.7-1.7-4.5-1.5
			c-1.9,0.2-3.8,0.1-5.7-0.1c-1.6-0.1-2.3-1.5-2.9-3.6c-1.1,3-1.1,5.2,0.5,7.5c-1.4,0.4-2.6,0.5-3.7,1.3c-1.5,1.1-1.9-0.4-1.9-1.6
			c-0.1-2.1-1.2-3.7-2.5-5.3c-0.7-0.9-1.7-1-2.4-0.2c-1.3,1.4-3.1,1.8-4.7,2.6c-2.8,1.3-5.2,3-5.3,6.5c0,0.4-0.2,0.8-0.1,1.2
			c0.3,1.4,4.9,4.6,6.4,4.2c1.1-0.3,1.4,0.1,1.9,0.9c0.8,1.3,0.4,3.5,2.3,3.9c1.3,0.3,2.7-0.4,4.2-0.5c1.3-0.1,1.6,0.3,2.3,1.2
			c1.2,1.5,2.7,2.8,4.5,3.6c0.5,0.2,1.3,0,1.2,0.9c0,0.7-0.5,1.1-1,1.3c-1.5,0.6-2.9,1.6-4.5,1.2c-2.1-0.6-2.1,0.5-1.7,2
			c0.2,0.7,0.5,1.4,0.7,2.1c0.4,1.6-0.9,2.2-1.8,3c-0.9,0.8-1.2-0.3-1.8-0.6c-1.5-1-3-1.6-4.9-0.9c-2.9,1.1-5.7-0.8-5.9-3.9
			c0-0.5,0-1,0-1.5c0-0.6-0.2-1.2-0.9-1.3c-0.6-0.1-0.9,0.4-1.1,0.8c-0.7,1.5-1.6,2.9-2.2,4.4c-0.6,1.4,0,2.7,1.7,3.3
			c0.7,0.3,1.7,0.3,1.2,1.6c-0.3,0.8,0.2,1.9-1.4,2.2c-1.4,0.3-2.6,1.3-4.2,0.1c-0.6-0.4-1.4,0.2-2,0.7c-1.3,1.1-2.1,0.1-2.5-0.9
			c-0.6-1.1-0.6-2.4,0.2-3.5c0.3-0.5,0.7,0.2,1,0.2c2.8-0.3,1.8-2.8,2.2-4.3c0.3-1.2,1-3.4-1.1-3.7c-1.4-0.3-3.1,0.6-4.2,1.6
			c-0.8,0.8-1.8,1-2.7,0.8c-0.5-0.2-1-1.3-0.5-1.7c1-0.7,0-3.1,2.4-2.5c1.2,0.3,2.2-0.2,2.2-1.6c0-1.6-1.2-1.2-2.1-1.3
			c-2.8-0.3-4.9,1.1-7,2.6c-1,0.6-2,1.1-3.3,1.7c1.3,1,2.4,1.7,3,3c0.2,0.5,0.8,0.9,1.3,1.1c2.7,0.9,3.2,2.3,2.1,5.1
			c-0.5,1.2-2.3,2.4-0.4,4c0.4,0.3-0.4,0.5-0.7,0.8c-1.9,2-4.4,2.6-6.9,3.1c-1.9,0.4-2.1,1.4-1.1,2.8c1.8,2.4,4.3,4.2,6.9,5.7
			c1.7,1,4.2-0.4,4.7-2.4c0.1-0.5,0-1,0.2-1.5c0.3-0.5,0.8-1,1.4-0.6c0.6,0.4,0.2,0.9-0.2,1.3c-1.1,1.2-1.1,2.8-2.2,4.1
			c-1.5,1.8-0.4,3.4,2.7,4.7l0,0c-1,1.6-2.1,1.3-3.1,0.1c-0.9-1-5.3-1.2-6.3-0.2c-1.1,1.1-1.4,2.5-0.6,3.9c1.3,2.5,3.3,3.6,5.3,2.8
			c1.7-0.7,1.6,0.7,2.3,1.5c-1.8,0.3-3.4,0-5,0.5c-0.9,0.3-2.5,0.1-3.4-0.9c-0.7-0.7-1.6-0.9-2.5-0.6c-1.6,0.5-3,1.6-4.9,1.1
			c-1-0.3-0.8,1.6-1.8,1.7c-1.5,0.3-2.8,1.2-4.3,1c-4.4-0.4-6.5,2.6-8.8,5.8c1.7,0.5,3.1,0.5,4.3-1.1c0.2,2.6,1.3,3.6,3.6,3.6
			c0.8,0,2.1-0.1,2.5,1.2c0.4,1.3-0.6,2-1.5,2.6c-1.7,1.1-2.8,2.6-3.5,4.6c-0.5,1.6-1.7,2.8-3.5,3.2c-0.3,0.1-0.6,0.7-1,0.2
			c-0.8-1-1.7-1-2.1,0.1c-0.5,1.3-0.6,2.9,0.8,3.9c0.6,0.4,1.9,0.5,1.7,1.4c-0.2,1.3-0.5,3.2-1.3,3.6c-1.9,0.9-2.9,2.6-4.3,3.9
			c-1.5,1.4-3,2.1-5.1,2.3c0.4-1.7-0.4-3.1-1-4.5l0,0c1.4-1.2,1.2-1.6-1-2.5c-0.1,0-0.1-0.1-0.2-0.1c0.1,0,0.1,0.1,0.2,0.1
			c0.2,0.5,0.3,1,0.5,1.5l0,0c-1.1-0.2-1.5-1.3-2-2.1c-1.4-2.3-3.5-3.8-6-3.8c-2.9-0.1-2.7-1.8-2.7-3.6c0-1,0.6-2.1-0.6-3.4
			c-0.2,2.6-1.5,4.7-1.3,7.1c0.2,1.6-0.5,2.8-2.1,2.8c-1.6,0-1.9,1.5-3,2c-2.1,0.9-4.2,0.5-6.3,0.6c-0.7,0-1.9-1-2,0.5
			c-0.1,1.6,1.1,0.6,1.8,0.6c0.2,0,0.3-0.1,0.5,0c1,0.4,2.4,0.1,3,1.3c0.2,0.4,0.1,1.1-0.4,1.3c-1.2,0.6-2-0.2-2.9-0.8
			c-2.2-1.4-4.2-1-6.1,1c-0.5,0.5-0.7,1.1-1.6,0.7c-1.9-0.8-3.9,0.2-3.6,2.4c0.5,3.5-0.5,6.1-3.3,8.3c2.8-1.3-1.8,2.7-4.8,1.8
			c-1.7-0.5-3.5-0.8-4.2-3c-0.3-1-0.6-1.9-0.2-2.9c0.2-0.6,0.4-1.4-0.5-1.7c-0.9-0.3-1.4,0.3-1.7,1.1c-0.1,0.2-0.1,0.5-0.2,0.7
			c-0.3,1,0.6,2.4-0.7,2.9c-1.3,0.5-2.8,0-3.8-0.7c-2.2-1.6-4.9-1.6-7.1-2.7c-1.3-0.6-1.9,0.3-1.7,1.5c0.2,1.1,0.3,2.1-0.6,2.9
			c-0.9-0.3-0.4-1.2-1-1.9c-0.6,0.9-1.5,1.6-1.8,2.6c-0.5,1.7,1.8,4,4.1,4.5c3.4,0.7,3.4,0.7,4.9-3.6c1.2,2.4,3.1,2.5,5.3,1.9
			c0.8-0.2,1.6-0.2,2.5-0.3c1.6-0.1,2.3,0.4,1.5,2.2c-1.3,2.7,0,4.5,2.9,4.2c1.3-0.2,3.8,5.7,4.8,7.8c0.1,0.2,0.1,0.5,0.1,0.7
			c-1.7-0.1-2.9,1.9-4.2,1.7c-2-0.2-3.2,0.8-4,1.9c-1.2,1.6-2.6,2.7-4.1,3.8c-1.4,1-3,2-2.6,4.3c-1.3-0.1-0.8-1.8-2-1.6
			c0.5-0.4,1-0.9,1.4-1.3c0.6-0.5,0.5-1.1-0.1-1.5c-0.9-0.6-2.4-1-2.9-0.4c-0.7,0.9-0.8,2.3-1,3.5c-0.1,0.3,0.6,0.5,1,0.3
			c0.5-0.2,1-0.5,1.6-0.7c-1.4,2-2.3,4.4-4.1,6.1c-2.4,2.1-2,4.9-1.9,7.6c0.1,1.6-0.2,2.5-2,1.7c-0.6-0.3-1.2-0.2-1.7,0.1
			c-2.5,1.6-5.5,2.4-7,5.8c-0.8,1.9-2.3,3.7-3,5.9c-0.2,0.7-1.1,1-1.8,1.1c-0.5,0.1-0.9-0.3-0.8-0.7c0.2-0.9-1.1-2.1,0.3-2.7
			c2.6-1.1,2.7-4.1,4.6-5.7c1.1-0.8,0.4-1.7-0.8-2.2c-1.6-0.6-3.3-0.6-5-0.9c-1.7-0.3-3.1,1.5-2.7,3.1c1.1,4-1.1,5.8-3.9,7.9
			c-3.6,2.7-3.6,6.9-3.1,10.7c0.5,3.3-3.9,5.1-2.7,3.4c3.2-4.7-0.3-12.3-5.8-13.4c-2.1-0.4-4.2-1.1-6.4-0.9
			c-0.9,0.1-1.5-0.7-2.1-1.2c-0.9-0.7-1.9-1.1-3-0.6c-1.1,0.5-1.3,1.4-0.3,2.1c0.8,0.5,1.9,1.2,2.7,1.1c3.2-0.5,4,1.6,5,3.8
			c0.9,2-0.3,3.9-1.4,4.6c-1.9,1.3-0.9,3.9-2.9,5.1c-0.6,0.3-0.9,1.3-1.7,1.7c-0.8,0.3-1.3,0.9-0.8,1.8c0.4,0.8,1,1.3,2,1
			c0.8-0.2,1.5-0.4,2.2-1c1.6-1.2,3-0.4,4.4,0.7c0.5,0.4,0.7,0.9,0.4,1.5c-0.2,0.5-0.6,1.1-1.1,0.8c-2.1-1-2.5,0.7-3.2,2
			c-0.7,1.5-0.8,2.8,0.4,4.1c0.2,0.2,0.2,0.5,0.3,0.9c-1.5-0.4-2.9,1.1-4.3-0.3c-0.4-0.4-1.1,0-1.6,0.4c-1.5,1.5-1,5.1,0.9,6.1
			c0.3,0.2,0.6,0.3,0.6,0.7c0,0.4-0.3,0.6-0.7,0.6c-2-0.2-4.4,1.4-5.4,0.9c-1.9-0.9-3.3,0-5,0c0.3-2.1,2.1-2.9,3.3-4.1
			c2.6-2.6,1.5-6.3-2.1-6.7c0.1-1.1,0.8-1.9,1.5-2.7c1.5-1.7,0.6-3.2-0.5-4.4c-1.1-1.2-2.5-1.6-4-0.1c-0.7,0.7-1.9,0.9-2.7,1.7
			c-1,0.9-1.6,1.9-0.7,3.3c0.5,0.7,0.6,1.5,0,2.3c-0.9,1.1-0.7,2.4,0,3.5c0.8,1,0.8,1.6-0.5,1.9c-0.8,0.2-1.2,0.7-1.6,1.4
			c-0.8,1.1-1.7,2.1-2.4-0.2c-0.5-1.7-1.9-1.1-2.8-0.6c-2.7,1.5-5.9,2.3-7.6,5.4c-0.5,1-2.3,1-3.4,1.8c-0.6,0.5-1-0.4-1.1-1
			c-0.1-0.7-0.1-1.3-0.2-2c-0.7-3.7-0.8-3.7-4.6-3.9c-0.5,0-0.9-0.4-1.3-0.6c-1.7-0.8-3.9,0-4.7,1.7c-0.2,0.5-4,5.8-7.1,5.5
			c-0.4,0-0.5,0.4-0.4,0.8c0.7,1.9-0.5,3.3-1.6,4.4c-0.8,0.9-0.8,1.8-0.8,2.7c0,0.9,0.9,1.7-0.3,2.7c-0.6,0.5-0.1,3.3-0.2,3.8
			c-0.1,0.8-0.6,1.1-1.2,0.5c-1.2-1.4-1.8-0.3-2.1,0.6c-1.1,3.1-3.8,4.7-5.9,6.8c-0.5,0.5-1.2,0.9-1.1,1.8c0,0-9.7,14.4-10.2,16.4
			c-0.2,0.9-0.9,0.9-1.5,0.5c0.7-1.6,0.9-3.2-0.8-4.2c-1.2-0.7-2.3-0.2-3.3,0.9c-3.3,3.9-3.8,12.2-4.3,14.1c-0.3,1,0.2,1.9,0.6,2.8
			c0.6,1.5,1.3,3.1-1.5,3.6c-2.6,0.5-2.3,3.3-3,5.1c-0.7,1.9-1.2,2.5-3.1,1.4c-0.9-0.6-2.1-0.2-3.1,0.2c-2.7,1.1-5.6,1.5-8.5,1.1
			c-0.8-0.1-1.4-0.2-2-0.8c-2.8-2.4-5.3-2.4-8.1,0.1c-1.6,1.4-3.3,2.8-4.8,4.3c-1.4,1.4-2.6,3.1-3.9,4.6c3.2,1.6-11.3-0.1-11.1,0.4
			c-3,1-6.1,1.5-8.2,4.2c-0.2,0.2-0.4,0.5-0.5,0.5c-2.3-0.8-4,1.1-5.9,1.1c-2.4,0-3.7,1-5.1,2.5c-0.2,0.2-0.3,0.4-0.4,0.6
			c-0.9,0.9-1.3,2.7-2.9,2.1c-1.7-0.6-0.8-2.3-0.9-3.5c1.8-0.5-5.8-7.6-8.5-7.8c-0.3,0-0.8-0.4-1-0.7c-1.1-1.8-2.8-1.9-4.6-1.7
			c-1.2,0.1-2.4,0.6-3.7,0.5c-1.5-0.1-1.7,1.3-1.8,2.3c-0.1,2.3-1.3,3.4-3.4,4.3c-2.1,0.9-3.7,2.8-4.1,5c-0.3,1.9,0.1,4,2.3,5
			c0.1,0.2-0.5,5.1-1.5,4.6c-1.7-0.9-3.6-1.3-5.1-2.3c-2-1.4-3.7-0.7-5.3-0.1c-3.2,1.1-6.1,0.4-7.9-2.3c-1-1.5-0.5-3.3-0.2-4.5
			c0.7-2.9-1.3-3.1-2.8-3.5c-1.4-0.4-3-0.2-4.5,0.1c-0.8,0.2-1.6,0.2-2.5,0.3c-0.6,0-1.2-0.1-1.4-0.8c-0.1-0.6,0.4-0.9,0.8-1
			c0.5-0.2,1.3-0.4,1.1-1.1c-0.2-0.7-1-0.5-1.5-0.5c-1,0-2-0.1-3,0c-1.1,0.1-2.3-0.4-3.1,0.9c-0.9,1.5,0.3,2.2,1.1,3
			c-0.8,0.7-1.5,0.3-1.7,0c-1.1-2.4-3.1-1.4-4.9-1.4c-1.5,0-2.9,0.5-4.4,0.4c-1-0.1-2.5,0.8-2.7,2.4c-0.1,0.9-0.3,1.9-1.1,2.4
			c-1.4,0.9-1.8,1.7-0.4,3.1c0.8,0.8-0.1,1.4-1,1.7c-5.6,1.8-8.7,6.2-10.9,11.4c-0.4,1-0.2,1.9,0.6,2.8c0.4,0.5,0.4,1.1-0.1,1.6
			c-0.4,0.4-1,0.7-1.6,0.5c-0.6-0.2-0.7-0.9-0.8-1.5c-0.6-3.5-1.4-4.2-4.8-3.3c-2.6,0.7-5.1-0.4-7.6,0.4c-0.9,0.2-1.7-0.6-1.5-1.8
			c0.3-1.4,0.4-2.8-0.8-3.9c-0.7-0.7-0.4-1.4,0-2.1c1-1.5,1-3,0.5-4.7c-0.3-1.1-0.4-2.2,0.4-3.5c1.1-1.9-0.8-3.2-2-4.5
			c-1.3-1.4-2.7-0.6-3.8,0.1c-2,1.3-4,2.3-6.3,2.8c-2,0.4-3.8,2-5.7,3c-1.3,0.6,0.5,1.9,0.5,3c-1.1,0.7-2-0.1-3.1-0.6
			c0,2.4-2.4,3.1-2.9,5c-0.1,0.4-0.7,0.8-0.3,1.3c0.3,0.5,0.8,0.5,1.3,0.2c1.9-0.8,4.1-0.3,6-1c1.1-0.4,1.6,0.3,0.9,1.4
			c-1.6,2.6-2.9,5.7-6.8,5.4c-1.4-0.1-1.1,1.2-1.4,2c-0.3,0.7-0.3,1.3,0.4,1.8c0.8,0.5,1.4,0.1,2-0.5c1-0.9,1.9-0.9,2.7,0.2
			c0.7,0.8,1.6,1.1,2.6,1.2c0.8,0.1,1.7,0.3,2.3,0.8c2.3,2.2,2,3.4-1,4.6c-1.7,0.7-3.3,2-5.3,2c-0.5,0-1,0.5-1.4,0.9
			c-0.6,0.6-0.7,2.3-1.8,1.5c-0.9-0.6-2-1.9-2-3.2c0-0.8-0.4-1.7-0.2-2.4c1-3.5-1.1-5.5-3.6-7.2c-0.5-0.3-0.3-0.9-0.6-1.3
			c-0.8-1.3-1.8-2.3-3.6-2.1c-2.5,0.3-5.3-0.1-7.7,0.7c-2.8,0.9-6.1,1.1-7.9,4.2c-0.7,1.3-3,1.6-2.8,3.2c0.2,1.2,1.4,2.4,2.3,3.5
			c0.9,1.2,0.7,1.9-0.7,2.4c-1.8,0.7-3.6,1.6-5.4,2.5C244.5,399.3,249.7,405.6,248.1,409.6z M499.9,305.9 M189.9,376.1
			c0.8,1.2,1.2,1.9,1.7,2.6c0.4,0.5,1,1.1,1.7,0.4c0.7-0.7,0.2-1.2-0.4-1.6C192.3,377,191.6,376.3,189.9,376.1z M559.8,258.7
			c-0.2,0.1-0.3,0.2-0.4,0.3c0,0.1,0.1,0.2,0.2,0.4c0.1-0.1,0.3-0.2,0.4-0.3C560,258.9,559.9,258.8,559.8,258.7z"/>
		<path class="st4" d="M355.2,0.5c0.5,0,1,0,1.5,0"/>
		<path class="st3" d="M970.8,236.4c0.6-0.1,0.8-0.5,0.9-1c0.6-2.7-0.9-5.1-1.5-7.6c-0.5-1.9-0.2-3.6,1.1-4.5
			c3.4-2.2,8.1-15.6,8.1-13.6c4.5-4.3,5.6-9.9,6.6-15.3c0.8-4.3,2.2-7.9,5.5-10.7c0.7-0.6,0.7-1.2,0.2-1.9c-1-1.3-0.7-2.5,0.9-2.9
			c2.1-0.7,2.2-2,1.9-3.9c-0.5-2.8-1.2-5.6-2.3-8.3c-1.2-3.2-1.2-6.8-2.1-10.1c2.2-4.2,0.7-13.7,0.7-13.7c-0.1-0.9,0.5-1.3,0.9-1.8
			c3.8-5.1,8.1-9.7,14-12.4c0.7-0.3,2.3-0.8,1.6-1.7c-0.6-0.7-1.4-2.3-3-1.6c-0.6,0.2-1.4,0.3-1.9,0.2c-0.8-0.2-1.9-0.6-0.6-1.8
			c0.8-0.7,3.9-1.8,2.5-1.7c-5.3,0.1-5.9-4.4-5.9-4.4c-6.2-0.5-17.2-7-17.2-7c-3.6-1-5-4.6-7.7-6.6c-0.8-0.6-1.8-1.4-2.1-2.6
			c-1.1-4.5-5.4-6.6-9.6-4.7c-0.8,0.4-1.7,0.7-2.5,1.1c-4.7,2.1-7,6-8.3,10.7c-0.3,1.3-1,2-2,2.6c-2.9,1.7-6.3,2.1-9.4,3.3
			c-0.8,0.3-1.2-0.4-1.8-0.6c-20.7,3.6-24.2,11.5-24.2,11.5c-1.9,2.1-1.6,5.3-3.4,7.3c-1.9,2-3.1,4.4-4.5,6.8
			c-0.5,0.8-0.5,1.8-1.7,2.4c0,0-4.1,7.4-4,10.8c0,1.3-0.5,2.6-1.3,3.4c-1.7,1.5-2.8,3.6-3.9,5.4c-1.6,2.7-4.9,1.6-6.6,3.5
			c-2,2.3-7.6,11.5-7.6,11.5c-0.7,3.6-3.8,5.7-5.1,9c-0.4,1-1.3,1.7-2,2.5c-2.7,3-4.7,6.3-6.3,10c-0.6,1.4-0.2,3.6-1.9,4
			c-1.5,0.3-1.4,0.7-0.8,1.7c0.3,0.5-0.1,0.9-0.2,1.3c-1,2.9-3.4,4.7-5.2,7.1c0.9,0.6,1.8,1.3,2.8,2c-2.2,0.8-2.2,0.7-3.8,2.7
			c-0.7,0.8-1.3,1.4-2.5,1.4c-1.6,0.1-1.9,1.4-1.7,2.5c0.5,3.5-0.2,4.8-3.3,5.4c-0.8,0.2-1.5,0.5-1.5,1.4c0,0.9,0.9,0.5,1.4,0.6
			c1.6,0.2,0.9,0.9,0.4,1.6c-3.1,3.8-6.6,7.1-7.3,12.6c-0.7,5.3-5.3,8.7-9.5,11.5c-1.6,1.1-2.8,1.9-3.6,3.6
			c-0.5,1.3-1.3,2.4,0.4,3.2c-1.8,2.5-0.6,5.8-2.2,8.3c-3.1,4.9-2.4,10.1-1.2,15.3c0.3,1.2,0.5,2.5-1.5,2.1
			c-1.1-0.2-1.3,0.3-1.3,1.2c0,0.9,0.3,1.4,1.3,1.4c0.6,0,1.2-0.7,1.8-0.2c0.3,1.1-1.1,1.9-0.7,2.9c0.9,2.2,0.1,4.4,0.5,6.6
			c0.3,1.6,0,3-1.6,4.1c-1.1,0.7-1.5,2-1.8,3.2c-0.3,1.2-0.2,2.8-1,3.5c-2.5,2.4-1.3,5.8-2.5,8.7c-1.6,3.9-2.3,8.3-4.2,12.2
			c-0.8,1.6-1.7,3.2,0.5,4.8c3.9,2.9,8.3,5.1,11.6,8.7c-0.1-1.6-0.2-3.2,2.1-3.4c1.5-0.1,1.9,0.9,1.9,2c-0.1,2.3-1.9,2.1-3.4,2
			c0.2,2.4,0.3,4.7,0.5,7.1c0.1,2.1,0.5,4,3.9,4.2c-2.4,0.7-1.4,1.6-1.1,2.6c0.7,2.7,1.7,5.3,2.9,7.7c1.1,2.1,1.5,4.8,3.2,6.4
			c1.5,1.4,1.2,2.3,0.3,3.5c-2.2,2.9-1.7,4.9,1.8,6.6c0.1-0.3,1.3,1.5,1,1.5c-0.3,0.8,0.7,1.5,0,2.4l2.3,1.8c0.9,0.6,3.6,1.1,2,3.5
			c-0.1,0.2,0,0.5,0.1,0.7c0.2,0.5,6.1,4.2,6.4,3.9c2.8-2.1,2.5,1.4,3.6,2.2c0.6,0.4,1.1,1.5,2,2c2.1,1.3,4.1,2.6,6.2,3.7
			c3.6,1.8,6.8,3.8,7.9,8.1c0.2,0.8,0.9,1.4,1.3,2.1c1.8,3.5,2.8,7.5,5.8,10.4c0.1,0.1,0.1,0.1,0.1,0.2c0.2,3.4,1.6,6.6,2.2,9.9
			c0.5,2.7,0.1,5.5-1.2,7.7c-1,1.8-0.7,2.8,0,4.2c0.8,1.8,2.4,3.4,1.2,5.8c-0.3,0.7,1.3,1.7,2.2,2.2c0.7,0.4,1.2-0.6,1.3-1.4
			c0.3-1.9,1.3-1.6,2.7-1.1c2.5,0.9,4.3,2.8,6.4,4.3c0.6,0.4,1.2,1.6,2,0.9c0.8-0.7,0-1.7-0.4-2.5c-0.1-0.3-0.4-0.5-0.6-0.8
			c-1.4-2.6-0.7-4.9,1.5-6.8c1.3-1.2,3.7-2.7,2.9-4.4c-1.4-3,1.2-6.2-0.9-9c-0.1-0.1,0-0.4,0.1-0.5c1.3-1.6,0.6-3.5,0.7-5.3
			c0.5-4.7-1-9.5,0.4-14.1c2.3-7.6,4.7-15.2,7.1-22.8c0.7-2.2,1.3-4.5,3.3-6c0.9-0.7,0.7-1.8,0.8-2.8c0.3-2.6,1-5,3.4-6.6
			c2.5-1.7,4.9-3.6,7.7-4.9c1-0.4,3.7-4.1,3.6-3.8c2.3-1.9,4.2-4.1,3.1-7.5c-0.6-1.9,0.1-3.4,1.7-3.9c2.5-0.9,4-2.7,4.9-4.8
			c1.7-3.9,5.2-6.8,6.4-11.1c1.1-4,2.4-7.9,6.2-10.6c2.1-1.5,1-4.5,0.7-6.8c-0.1-1.2-0.4-2.2,0.2-3.4c2.6-5.5,6.6-10.5,6.8-17.1
			c0.1-3.5,2.3-6.5,3.1-10c0.7-2.9-0.4-5.8,0.7-8.6c0.8-2.1,2-4.2,2-6.6c0-1.6,0.2-3.1,0.8-4.6c1.3-3.6,1-7.6,3.1-10.9
			c0.2-0.3,0.1-0.7,0.1-1c-0.3-2.8,0.6-5.3,1.7-7.7c1-2.2,1.4-4.4,1.5-6.8c0-2,0.6-4,0.9-6C968.8,237.8,970.8,236.4,970.8,236.4z
			 M960.8,123.9c-3.6,0-6.5-2.8-6.5-6.5c0-3.6,2.9-6.5,6.5-6.4c3.5,0,6.3,2.8,6.4,6.3C967.2,121,964.4,123.9,960.8,123.9z"/>
		<path class="st3" d="M15.1,491.6c2.8-6.2,2.8-6.2,2-8.3c0.3-0.4,0.8-0.4,1.1-0.2c1.9,1.5,3.5,0.6,4.8-0.9c0.9-1,1.4-0.8,2.2,0
			c1.6,1.5,3.3,1.9,5.3,1c1-0.4,2.1-0.1,2.5,0.9c0.4,0.9-0.4,1.4-1.2,1.8c-1.7,0.8-3.3,1.5-5.4,1.2c-1.8-0.3-3.7,0.8-4.9,2
			C19.7,491,17.8,492,15.1,491.6z"/>
		<path class="st3" d="M839.6,383.7c-0.1,0.2-0.3,0.5-0.4,0.5c-0.5,0-0.7-0.4-0.8-0.8c0-0.2,0.2-0.5,0.3-0.6
			C839.3,382.8,839.2,383.4,839.6,383.7z"/>
		<path class="st3" d="M797.8,76.5c0-0.1,0.1-0.3,0.1-0.4c0.1,0,0.1,0.1,0.2,0.1C797.9,76.3,797.8,76.4,797.8,76.5
			C797.7,76.5,797.8,76.5,797.8,76.5z"/>
		<path class="st3" d="M671.8,174c-0.4-0.2-0.5-0.6-0.5-1c0,0,0,0,0,0C671.6,173.2,671.8,173.6,671.8,174L671.8,174z"/>
		<polygon class="st3" points="672.2,179.8 672.2,179.7 672.4,179.7 		"/>
		<path class="st3" d="M978.2,211c0.1-0.2,0.1-0.4,0.2-0.6C978.5,210.4,978.4,210.8,978.2,211L978.2,211z"/>
		<path class="st3" d="M23.2,480c0.1,0,0.1,0.1,0.2,0.1C23.4,480.1,23.3,480,23.2,480C23.3,480,23.2,480,23.2,480z"/>
		<polygon class="st3" points="715.8,132.5 715.9,132.4 715.7,132.5 		"/>
		<path class="st4" d="M245.3,369.7"/>
		<path class="st4" d="M613.8,216c-0.5,0.2-1,0.5-1.6,0.7c-0.5,0.2-1.1,0-1-0.3c0.2-1.2,0.3-2.7,1-3.5c0.5-0.6,2-0.3,2.9,0.4
			c0.6,0.4,0.6,1,0.1,1.5C614.7,215.1,614.2,215.6,613.8,216C613.7,216,613.8,216,613.8,216z"/>
		<path class="st4" d="M189.9,376.1c1.7,0.2,2.3,0.9,3,1.4c0.5,0.4,1.1,1,0.4,1.6c-0.7,0.6-1.3,0.1-1.7-0.4
			C191.1,378,190.7,377.2,189.9,376.1z"/>
		<path class="st4" d="M671.7,174c0-0.4-0.1-0.8-0.5-1c-0.2-0.5-0.3-1-0.5-1.5l0,0C673,172.4,673.2,172.8,671.7,174z"/>
		<path class="st4" d="M559.8,258.7c0.1,0.1,0.2,0.2,0.2,0.3c-0.1,0.1-0.3,0.2-0.4,0.3c-0.1-0.1-0.2-0.3-0.2-0.4
			C559.5,258.8,559.7,258.8,559.8,258.7z"/>
		<path class="st4" d="M184.6,379.1c-0.2-0.1-0.4-0.2-0.6-0.3c0.3-0.4,0.5-0.1,0.7,0.1C184.8,379,184.7,379.1,184.6,379.1z"/>
		<path class="st4" d="M670.8,171.5c-0.1,0-0.1-0.1-0.2-0.1C670.6,171.4,670.7,171.5,670.8,171.5
			C670.7,171.5,670.8,171.5,670.8,171.5z"/>
		<path class="st4" d="M783.3,79.4c0,0.1,0.1,0.2,0.1,0.3c-0.1,0-0.2-0.1-0.3-0.1C783.2,79.6,783.3,79.4,783.3,79.4z"/>
		<path class="st4" d="M80.8,450.5c-0.1,0-0.1-0.1-0.2-0.1C80.6,450.4,80.7,450.5,80.8,450.5C80.7,450.5,80.8,450.5,80.8,450.5z"/>
		<path class="st4" d="M106.2,487c0.1-0.1,0.1-0.1,0.2-0.2c0,0,0.1,0.1,0.1,0.1C106.4,486.9,106.4,487,106.2,487
			C106.3,487,106.2,487,106.2,487z"/>
		<path class="st4" d="M772.7,282.9c0.1,0,0.2-0.1,0.3-0.1c0,0.1-0.1,0.2-0.1,0.3C772.8,283,772.7,283,772.7,282.9z"/>
		<path class="st3" d="M371.3,352.5"/>
		<path class="st3" d="M539.3,261.7c0.8,0.9,0.6,1.5,0.1,2.3C538.7,263.3,538.7,262.7,539.3,261.7z"/>
		<path class="st3" d="M537.4,262c0.7,0.6,0.5,1.2,0.1,1.8C536.9,263.2,537,262.7,537.4,262z"/>
		<path class="st3" d="M536.7,260.1c-0.2,0.1-0.4,0.3-0.6,0.3c-0.2,0-0.4-0.2-0.5-0.4c-0.1-0.4,0.1-0.6,0.5-0.5
			C536.3,259.6,536.4,259.9,536.7,260.1z"/>
		<path class="st4" d="M990.7,150.2c0.4-0.3,0.5-0.5,0.7-0.5"/>
		<g>
			<path class="st4" d="M613.7,216C613.7,216,613.7,216,613.7,216C613.7,216,613.8,216,613.7,216L613.7,216z"/>
		</g>
		<circle class="st5" cx="960" cy="116.9" r="10.4"/>
	</g>
	<circle class="st6" cx="184.5" cy="416.6" r="10.4"/>
</g>
<g id="圖層_3">
	<rect class="st4" width="1279" height="862.6"/>
	<g>
		<path class="st7" d="M830,0H0l-1,575.5l31-7l20-12c0,0,2-14,4-20s16-8,28-12s22-12,22-12h19.3l6.7,2.3c0,0,4.7-2.7,6.3-3.3
			c1.7-0.7,4,3.7,4,3.7l2,5c0,0-4.7,1.3-6,2.3c-1.3,1,2,3.3,3.3,3.3c1.3,0,2.7-1,7-2c4.3-1,6.7-0.7,9-1c2.3-0.3,7-1.3,8.7-2
			c1.7-0.7,2.3-4.3,3.3-5.3s-1-4.3,2.3-0.3c3.3,4,3.3,2.3,7,6c3.7,3.7,0,0,3-1c0,0,3.7,0,5,1.7s0.3,3,2,3.3c1.7,0.3,2.3,1.3,2.3,1.3
			s-2.3,2.3-6.3,2.3s0,0-3.7,0c-3.7,0,0.7,2.3,1,3.7c0.3,1.3-1.7,2.3-2.3,3.3s-1.3,2.3-3.7,5c-2.3,2.7-1.3,2.3-0.3,3.3
			s1.3,3.3,0.7,5.3c-0.7,2,0.7,9.3,0.7,9.3s0.7,5.7,1,8.7c0.3,3,2.3,6.7,4,10.3c1.7,3.7,4,0.3,4,0.3s5.7,6,5.7,9.7
			c0,0-2.3,2.7-2.7,5c-0.3,2.3,5.3,4.7,5.3,4.7s12,2.7,15.7,2.3c3.7-0.3,10.7-4,12-5c1.3-1,1-8,1-12s-2-7.3-3-8.7
			c-1-1.3-4.3-0.7-4.3-0.7s-4-2.3-3.7-3.3c0.3-1,7-3.3,8-4.3s-5.3-4-6.3-4s-6.7,0-7-1.3c-0.3-1.3,0-3,0-4s3-2.7,4.3-3
			c1.3-0.3,9,0,9,0l9.3,1v-8.3c0,0,0.7-7,5.3-9.7c4.7-2.7,0.7-2.3,2-6c1.3-3.7,9.3-2.7,9.3-2.7s12.3-2.7,15.3-3.7s10-2,10-2
			s19.3-3.7,21.7-4.7c2.3-1,4-3.3,7.7-5.3c3.7-2-2-5.3-2-5.3s3,3,4.3,3.3c1.3,0.3,4-2.3,4-2.3s7-4,9-4.7c2-0.7,7.7,0,7.7,0l3,4
			c0,0,7-1.7,8-2.7s0.7-7.3,0.7-7.3l6,3.7l6.3,2l3.3-6.7c0,0,6-4.7,6.7-5.7s5,2.7,5,2.7s4.7,3.7,7,3c2.3-0.7,4.3-6,4.3-6l2.3-7.3
			c0,0,6,7.3,7,7s1.7-2.3,6-2c4.3,0.3,3.3-2.7,3.3-2.7s0,0,0-2.3s1-4.7,2.7-6c1.7-1.3,2.3,0.3,2.3,0.3s5,0.7,7.3-0.3
			c2.3-1,0,0,2-1.7c2-1.7,1-8.7,1-9.7s-1.7-8.7-1.7-8.7s3-3,4-4s-2.3-7-3-9c-0.7-2,2.3-3.7,2.3-3.7l6.7,5.3c0,0,5.7,8.3,7,10
			c1.3,1.7,0,12,0,12l-0.7,8.7c0,0,0,0,1.3,0c1.3,0,7.3-5,7.3-5l6.7-4.3c0,0,1.7,3.3,2.7,3.7c1,0.3,4.3-0.7,5.7-1.3
			c1.3-0.7,3.7-5.3,3.7-5.3l-3.7-5.7c0,0,2-2.3,4-4c2-1.7,3-3,5.3-4s4,0.3,5,0.3s4-1.7,4-1.7s0,0,1.7-2c1.7-2-2.7-1-2.7-1l1.3-2.3
			c0,0,0,0,0.7-1.3c0.7-1.3,3-3,3-3l6.3-1.3l3.7-2.3l0.7,2.3l-3.7,2.3l-0.3,8l3.3,2.3c0,0,5.7-0.7,7-1c1.3-0.3,2.7-2,3.7-3
			s2.3-7,2.3-7l9.3-4.3l7,2.7l4.7,7.3l5-1l6,0.7c0,0-1.3-2.3-2.3-3.7c-1-1.3,1.7-5.3,1.7-5.3l5.3-4c0,0,2,2.3,3.3,3s5.7,2,5.7,2
			l3.3,1.3c0,0,0,0,1-0.7c1-0.7,4.3-0.7,5.7-1.3c1.3-0.7,2.7-1.3,4.3-1.3s5.7,0.7,5.7,0.7l6.3-7.7c0,0,4.3,0.3,5.7,1.3
			c1.3,1,6-1,7.3-1s3-2,5-3.7c2-1.7,0-4-0.3-5c-0.3-1,5-6.7,5-6.7s7.7,2,8.7,1.3c1-0.7,1-8.3,1-8.3s1-4,2-4.3c1-0.3,4.7-6.7,4.7-6.7
			l3-6l1,2.3l3.3-4l-3.3-2.7c0,0,4-0.3,6,0.3s3,2.7,3,2.7l10.7-3.7l5.3-13.7l11.3-3.7H653l24-24l-10-9l21-6h16l12-16l11-26l19-12
			l22-20v-18l8-25l-8-18v-15l23-5l10.1-16.9l1.5-28.5c13.5-7.5,13.5-7.5,13.5-7.5l13.9-15c-1.9-16.5-1.9-16.5-1.9-16.5
			s14-4.5,18.2-12c4.3-7.5-6.2-1.5,4.3-7.5c10.5-6,10.5-6,10.5-6l0,0c0,0,22.5-10.5,12.7-19.5c-9.7-9-13.8-28.5-13.8-28.5l26.5-3
			l16.6,6L968.7,0H830z"/>
		<path class="st7" d="M206,612.5l8.7-3.3c0,0,4.7,0,7.3,3.3c2.7,3.3,6,5.3,6,5.3v-8.7c0,0,2.7-3.3,6,0c3.3,3.3,6,2.5,8,3.6
			c2,1.1,4-4.4,5.3,0c1.3,4.4,4.7,13.1,4.7,13.1s-1.3,6.7,0,8.7s0,5.3,0,5.3l-7.3,4c0,0-8.7,7.3-8.7,9.3s-4,4-4,4l-2.7,8.7v7.3
			l-7.3,4c0,0-2.7,5.3-1.3,7.3c1.3,2,4,8.7,4,8.7l-6.7,6h-6l-6,2.7c-7.3,5.3-9.3,7.3-10,9.3s0,5.3,0,5.3l-8-2.7c0,0-4.7,4-6.7,2.7
			c-2-1.3-0.7-4.7-2-1.3c-1.3,3.3-4,13.3-4,13.3H168h-6.7c0,0-9.3-6-12.7-6c-3.3,0-10,1.3-10,1.3s-2-6.7-4-7.3
			c-2-0.7-6.7-2.7-6.7-2.7c-6.7,0.7-6.7-2.7-6.7-2.7l-6.7-4v-6.7v-7.3c0,0,1.3-4.7,0-7.3c-1.3-2.7-1.3-2.7-1.3-2.7l-2.7-4.7l-2.7-6
			l5.3-8c-1.3-8-1.3-8-1.3-8s0.7-0.7,2-3.3c1.3-2.7,3.3-4,5.3-4.7c2-0.7,5.3-2,7.3-3.3c2-1.3,4.7-4.7,4.7-4.7l6.7-4l10-4.7l-3.3-7.3
			l8.7-4.7c8,2.7,14,0,14,0l13-6.7c0,0,13,2,16.4,0.7C200,612.5,206,612.5,206,612.5z"/>
		<path class="st7" d="M851.5,288l11.5-3.5l8.5-7l7.5-5.5c0,0,4,4,4,5.5s0,1.5,2.5,2.5s2.5,0,5,0s6,0,6,0c2.5,5.5,7.5,7,6.5,8
			s0.1,4,0.1,4c-2.1,5-4.6,5.5-5.1,7s-2.5,1.5-3,3.5s-0.5,2-0.5,2s0.5,5.5,0.5,8s-2-2.5,0,2.5s2.5,6.5,2,8s2-1.5-0.5,1.5
			s-4,6.5-4,6.5c0,4.5-3,9-4,10.5s-2.5,8.7-2.5,8.7l-4.5,6.8c0,0,2,8,1,9.5s-5.2,20-5.2,20l-3.8,12.5l-3.5,11l-3,13l-8,10.5l-4.5,7
			c0,0-7.5,6.5-9,8.5s-4.5,4.5-4.5,7s1,10,0,12s-2,12-2.5,14.5s0,7.5,0,7.5c-6,3-8.5,0-8.5,0l-4-6.5V478v-10c0,0-5-3-6.5-3.5
			s-8-5.5-8-5.5l-7-4.5l-5-11L797,432v-4.5l-4.5-3.5l-3-5l3-12l2-7l2-5.5l-3-7.5v-5.3l1.5-7.2l8-6l6.5-10c0,0,0.5-8.1,1.5-8.3
			s4.5-4.7,4.5-4.7s3.5-7.5,5-9s5-11,5-11l10.5-16l7.5-9.5l2.8-4.5L851.5,288z"/>
	</g>
	<circle class="st8" cx="395.8" cy="480.6" r="13.8"/>
	<circle class="st8" cx="860.1" cy="294.7" r="13.8"/>
</g>
</svg>
