<?xml version="1.0" encoding="utf-8"?>
<!-- Generator: Adobe Illustrator 20.1.0, SVG Export Plug-In . SVG Version: 6.00 Build 0)  -->
<svg version="1.1" id="圖層_1" xmlns="http://www.w3.org/2000/svg" xmlns:xlink="http://www.w3.org/1999/xlink" x="0px" y="0px"
	 viewBox="0 0 600 600" style="enable-background:new 0 0 600 600;" xml:space="preserve">
<style type="text/css">
	.st0{fill:#FFFFFF;}
</style>
<path class="st0" d="M350.3,351.1l254.4,38.4V323l-253.3-93.9L353.2,82h0c-0.3-40-38.9-72.2-52.9-73v0c-0.1,0-0.2,0-0.3,0
	c-0.1,0-0.2,0-0.3,0v0c-14,0.8-52.7,33-52.9,73h0l1.8,147.1L-4.7,323v66.5l254.4-38.4v0.2l14.5,145.3l-70,45.8l4.1,48.6L300,568
	l101.6,23l4.1-48.6l-70-45.8l14.5-145.3V351.1z"/>
</svg>
