<?xml version="1.0" encoding="utf-8"?>
<!-- Generator: Adobe Illustrator 20.1.0, SVG Export Plug-In . SVG Version: 6.00 Build 0)  -->
<svg version="1.1" id="圖層_1" xmlns="http://www.w3.org/2000/svg" xmlns:xlink="http://www.w3.org/1999/xlink" x="0px" y="0px"
	 viewBox="0 0 600 600" style="enable-background:new 0 0 600 600;" xml:space="preserve">
<style type="text/css">
	.st0{fill:#FFFFFF;}
</style>
<path class="st0" d="M351.1,249.7L389.5-4.7H323l-93.9,253.3L82,246.8l0,0c-40,0.3-72.2,38.9-73,52.9l0,0c0,0.1,0,0.2,0,0.3
	c0,0.1,0,0.2,0,0.3l0,0c0.8,14,33,52.7,73,52.9l0,0l147.1-1.8L323,604.7h66.5l-38.4-254.4h0.2l145.3-14.5l45.8,70l48.6-4.1L568,300
	l23-101.6l-48.6-4.1l-45.8,70l-145.3-14.5L351.1,249.7L351.1,249.7z"/>
</svg>
