<?xml version="1.0" encoding="utf-8"?>
<!-- Generator: Adobe Illustrator 20.1.0, SVG Export Plug-In . SVG Version: 6.00 Build 0)  -->
<svg version="1.1" id="圖層_1" xmlns="http://www.w3.org/2000/svg" xmlns:xlink="http://www.w3.org/1999/xlink" x="0px" y="0px"
	 viewBox="0 0 600 600" style="enable-background:new 0 0 600 600;" xml:space="preserve">
<style type="text/css">
	.st0{fill:#3B4244;}
	.st1{fill:#D4DDDE;}
	.st2{fill:#4B565B;}
	.st3{fill:#ED7777;}
	.st4{fill:#F5DA56;}
	.st5{fill:#80C267;}
	.st6{fill:#595757;}
	.st7{fill:#9FA4A4;}
	.st8{fill:#B5B5B6;}
	.st9{fill:#898989;}
</style>
<g>
	<rect x="45.7" y="74.1" class="st0" width="508" height="345.3"/>
	<path class="st1" d="M346.7,446.9c-0.3-0.8-0.6-1.7-0.7-2.5c-0.7-3.9-5.1-6.9-10.4-6.9h-27.9h-9h-27.9c-5.3,0-9.7,3-10.4,6.9
		c-0.1,0.9-0.4,1.7-0.7,2.5l-33.3,80.5c-2,4.9-0.5,10.7,3.9,13.6c1.4,0.9,3.1,1.5,4.8,1.5h63.6h9h63.6c1.7,0,3.4-0.6,4.8-1.5
		c4.4-2.9,6-8.7,3.9-13.6L346.7,446.9z"/>
	<g>
		<path class="st2" d="M543.4,82.5H56.6v331h486.9V82.5z M531.4,398.9c0,1.7-1.7,3.1-3.8,3.1H72.4c-2.1,0-3.8-1.4-3.8-3.1V115.4
			c0-1.7,1.7-3.1,3.8-3.1h455.1c2.1,0,3.8,1.4,3.8,3.1V398.9z"/>
		<g>
			<circle class="st3" cx="77.3" cy="97.7" r="4.2"/>
			<circle class="st4" cx="91" cy="97.7" r="4.2"/>
			<circle class="st5" cx="104.8" cy="97.7" r="4.2"/>
		</g>
	</g>
	<path class="st6" d="M560.2,57.5H39.8c-3.5,0-6.3,3.1-6.3,7v380.9c0,3.8,2.8,7,6.3,7h520.3c3.5,0,6.3-3.1,6.3-7V64.4
		C566.5,60.6,563.7,57.5,560.2,57.5z M543.4,406.1c0,3.8-2.8,7-6.3,7H62.9c-3.5,0-6.3-3.1-6.3-7V89.7c0-3.8,2.8-7,6.3-7h474.2
		c3.5,0,6.3,3.1,6.3,7V406.1z"/>
	<path class="st7" d="M224.6,531.6h156.9c0,0,2.9,10.9-10.5,10.9c-13.4,0-135.9,0-135.9,0S224.5,542.3,224.6,531.6z"/>
	<polygon class="st7" points="257.4,452.3 245.4,481.3 360.9,481.3 348.9,452.3 	"/>
	<rect x="67.5" y="108.2" class="st2" width="101.1" height="293.4"/>
	<g>
		<rect x="184.2" y="127.4" class="st8" width="149.2" height="17"/>
		<rect x="184.2" y="153.9" class="st8" width="220.4" height="17"/>
		<rect x="184.2" y="180.3" class="st8" width="60.3" height="17"/>
		<rect x="184.2" y="206.7" class="st8" width="144.5" height="17"/>
	</g>
	<g>
		<polygon class="st8" points="254.4,303.8 254.4,315.1 328.3,348.8 328.3,334.7 274.1,309.6 328.3,284.3 328.3,270 254.9,303.6 		
			"/>
		<polygon class="st8" points="335.5,374.9 350.1,374.9 392.9,255.1 378.3,255.1 		"/>
		<polygon class="st8" points="399.2,270 399.2,284.3 453.4,309.6 399.8,334.4 399.2,334.7 399.2,348.8 473.2,315.1 473.2,303.8 		
			"/>
	</g>
	<g>
		<rect x="79.8" y="117.6" class="st9" width="73.9" height="9.8"/>
		<rect x="79.8" y="135.2" class="st9" width="73.9" height="9.8"/>
		<rect x="79.8" y="152.8" class="st9" width="73.9" height="9.8"/>
		<rect x="79.8" y="170.5" class="st9" width="73.9" height="9.8"/>
	</g>
</g>
</svg>
