<?xml version="1.0" encoding="utf-8"?>
<!-- Generator: Adobe Illustrator 20.1.0, SVG Export Plug-In . SVG Version: 6.00 Build 0)  -->
<svg version="1.1" id="圖層_1" xmlns="http://www.w3.org/2000/svg" xmlns:xlink="http://www.w3.org/1999/xlink" x="0px" y="0px"
	 viewBox="0 0 600 600" style="enable-background:new 0 0 600 600;" xml:space="preserve">
<style type="text/css">
	.st0{fill:#FFFFFF;}
</style>
<path class="st0" d="M310.4,6.4V6.1H300c0,0,0,0,0,0h0c0,0,0,0,0,0h-10.3v0.3C187.1,11.8,105,97.4,105,201.1v196.4
	c0,107.3,87.8,195,195,195h0c107.3,0,195-87.8,195-195V201.1C495,97.3,412.9,11.8,310.4,6.4z M279.3,202.5V99.8
	c0-11.4,9.3-20.7,20.7-20.7s20.7,9.3,20.7,20.7v102.7c0,11.4-9.3,20.7-20.7,20.7S279.3,213.9,279.3,202.5z M295.1,239.4
	c-0.3,0-0.6-0.1-0.9-0.1C294.5,239.4,294.8,239.4,295.1,239.4z M294.2,62.9c0.3,0,0.6-0.1,0.9-0.1C294.8,62.8,294.5,62.9,294.2,62.9
	z M125.7,201.1c0-92.6,72.6-168.6,163.9-174v36.7c-15.5,4.5-27,18.9-27,35.8v102.7c0,16.9,11.4,31.3,27,35.8V275
	c-76.4-1.5-136.2-12.6-163.9-21.1V201.1z M474.3,397.6c0,96.1-78.2,174.3-174.3,174.3c-96.1,0-174.3-78.2-174.3-174.3V275.7
	c32.8,9.8,95.9,20.6,175.3,20.6c52.1,0,111.2-2.3,173.3-20.9V397.6z M474.3,253.7c-58.1,18-114,20.6-163.9,21.3v-36.7c0,0,0,0,0,0
	c15.5-4.5,27-18.9,27-35.8V99.8c0-16.9-11.4-31.3-27-35.8c0,0,0,0,0,0V27.2c91.3,5.4,163.9,81.3,163.9,174V253.7z M304.9,239.4
	c0.3,0,0.6-0.1,0.9-0.1C305.5,239.4,305.2,239.4,304.9,239.4z M304.9,62.8c0.3,0,0.6,0.1,0.9,0.1C305.5,62.9,305.2,62.8,304.9,62.8z
	"/>
<path class="st0" d="M300,223.2L300,223.2c-11.4,0-20.7-9.3-20.7-20.7V99.8c0-11.4,9.3-20.7,20.7-20.7h0c11.4,0,20.7,9.3,20.7,20.7
	v102.7C320.7,213.9,311.4,223.2,300,223.2z"/>
</svg>
