<?xml version="1.0" encoding="utf-8"?>
<!-- Generator: Adobe Illustrator 20.1.0, SVG Export Plug-In . SVG Version: 6.00 Build 0)  -->
<svg version="1.1" xmlns="http://www.w3.org/2000/svg" xmlns:xlink="http://www.w3.org/1999/xlink" x="0px" y="0px"
	 viewBox="0 0 600 600" style="enable-background:new 0 0 600 600;" xml:space="preserve">
<style type="text/css">
	.st0{display:none;}
	.st1{fill:#C9CACA;}
	.st2{fill:#DCDDDD;}
	.st3{fill:#EFEFEF;}
	.st4{fill:#F7F8F8;}
	.st5{fill:#9FA0A0;}
</style>
<g id="圖層_1" class="st0">
	
		<image style="display:inline;overflow:visible;opacity:0.55;" width="830" height="374" xlink:href="../../全視圖-1.jpeg"  transform="matrix(1.5151 0 0 1.5151 -249.6939 -15.3514)">
	</image>
</g>
<g id="圖層_2">
	<g>
		<g>
			<g>
				<path class="st1" d="M369,341.6c0,0,75.1-3.1,116.4,48.8v147.6L369,536.2V341.6z"/>
				<path class="st2" d="M310.8,6.9v531.1h75.1V66.5C385.9,66.5,370.8,10.4,310.8,6.9z"/>
				<path class="st3" d="M200.1,229.5c0,0,39.4-94.7,129.5-105.2v413.7H200.1V229.5z"/>
				<path class="st4" d="M111.8,538.1V410.2c0,0,63.8-87.3,176.4-93.6v221.5H111.8z"/>
			</g>
			<path class="st3" d="M385.9,333.8v8.7c9.1,0.1,62.9,15.9,77,48l22.5,0C485.3,379.5,447.8,341.6,385.9,333.8z"/>
			<circle class="st2" cx="555.4" cy="484.9" r="0"/>
			<rect x="375.9" y="66.5" class="st3" width="10" height="463.1"/>
			<path class="st3" d="M310.8,6.9c0,0,55.1,10.8,65.1,59.6h10C385.9,66.5,369.4,8.3,310.8,6.9z"/>
		</g>
		<polygon class="st5" points="548.5,556.8 529.8,556.8 529.8,529.6 70.2,529.6 70.2,556.8 51.5,556.8 14,600 586,600 		"/>
	</g>
</g>
</svg>
