<?xml version="1.0" encoding="utf-8"?>
<!-- Generator: Adobe Illustrator 20.1.0, SVG Export Plug-In . SVG Version: 6.00 Build 0)  -->
<svg version="1.1" id="圖層_1" xmlns="http://www.w3.org/2000/svg" xmlns:xlink="http://www.w3.org/1999/xlink" x="0px" y="0px"
	 viewBox="0 0 600 600" style="enable-background:new 0 0 600 600;" xml:space="preserve">
<style type="text/css">
	.st0{fill:#FFFFFF;stroke:#000000;stroke-miterlimit:10;}
	.st1{fill:#ABB6B4;}
	.st2{fill:#6EA990;}
	.st3{fill:#6C8EA3;}
	.st4{fill:#DCDDDD;}
	.st5{fill:#FFFFFF;}
	.st6{fill:#727171;}
	.st7{fill:#595757;}
</style>
<rect x="244" y="311" class="st0" width="112.6" height="214.6"/>
<g>
	<g>
		<g>
			<rect x="248.4" y="341.6" class="st1" width="103.8" height="13.7"/>
			<rect x="248.4" y="355.4" class="st2" width="103.8" height="49.8"/>
			<g>
				<g>
					<g>
						<rect x="296.2" y="414.9" class="st1" width="49.4" height="5.8"/>
						<rect x="296.2" y="425" class="st1" width="49.4" height="5.8"/>
						<rect x="296.2" y="435.1" class="st1" width="28.9" height="5.8"/>
					</g>
					<rect x="254.4" y="411.1" class="st3" width="33.5" height="33.5"/>
				</g>
				<g>
					<g>
						<rect x="296.2" y="495.8" class="st1" width="49.4" height="5.8"/>
						<rect x="296.2" y="505.9" class="st1" width="49.4" height="5.8"/>
						<rect x="296.2" y="516" class="st1" width="28.9" height="5.8"/>
					</g>
					<rect x="254.4" y="492.1" class="st3" width="33.5" height="33.5"/>
				</g>
				<g>
					<g>
						<rect x="296.2" y="454.6" class="st1" width="49.4" height="5.8"/>
						<rect x="296.2" y="464.7" class="st1" width="49.4" height="5.8"/>
						<rect x="296.2" y="474.8" class="st1" width="28.9" height="5.8"/>
					</g>
					<rect x="254.4" y="450.9" class="st2" width="33.5" height="33.5"/>
				</g>
			</g>
			<path class="st4" d="M356.6,321.7H244V516h112.6V321.7z M352.2,538.6c0,1.2-0.6,2.1-1.4,2.1h-101c-0.8,0-1.4-1-1.4-2.1V344.3
				c0-1.2,0.6-2.1,1.4-2.1h101c0.8,0,1.4,1,1.4,2.1V538.6z"/>
			<path class="st5" d="M349.9,338.1h-99.2c-1.3,0-2.3-1-2.3-2.3v-4.2c0-1.3,1-2.3,2.3-2.3h99.2c1.3,0,2.3,1,2.3,2.3v4.2
				C352.2,337.1,351.2,338.1,349.9,338.1z"/>
		</g>
		<circle class="st6" cx="300.3" cy="530.6" r="7.9"/>
		<path class="st7" d="M346,294.6h-92c-9.5,0-17.3,7.8-17.3,17.3v213.3c0,9.5,7.8,17.3,17.3,17.3h92c9.5,0,17.3-7.8,17.3-17.3V311.9
			C363.3,302.4,355.5,294.6,346,294.6z M356,515.9H244V321.2h112V515.9z"/>
	</g>
	<circle class="st6" cx="300.3" cy="529.6" r="7.9"/>
</g>
</svg>
