<?xml version="1.0" encoding="utf-8"?>
<!-- Generator: Adobe Illustrator 20.1.0, SVG Export Plug-In . SVG Version: 6.00 Build 0)  -->
<svg version="1.1" id="圖層_1" xmlns="http://www.w3.org/2000/svg" xmlns:xlink="http://www.w3.org/1999/xlink" x="0px" y="0px"
	 viewBox="0 0 600 600" style="enable-background:new 0 0 600 600;" xml:space="preserve">
<style type="text/css">
	.st0{fill:#FFFFFF;stroke:#000000;stroke-miterlimit:10;}
	.st1{fill:#595757;}
	.st2{fill:#ABB6B4;}
	.st3{fill:#6EA990;}
	.st4{fill:#6C8EA3;}
	.st5{fill:#DCDDDD;}
	.st6{fill:#FFFFFF;}
	.st7{fill:#727171;}
</style>
<rect x="21" y="156" class="st0" width="286" height="362"/>
<g>
	<path class="st1" d="M310.4,147.7H17.6c-3.5,0-6.3,3.1-6.3,7v380.9c0,3.8,2.8,7,6.3,7h292.7c3.5,0,6.3-3.1,6.3-7V154.7
		C316.7,150.8,313.8,147.7,310.4,147.7z M293.6,496.3c0,3.8-2.8,7-6.3,7H40.7c-3.5,0-6.3-3.1-6.3-7V179.9c0-3.8,2.8-7,6.3-7h246.6
		c3.5,0,6.3,3.1,6.3,7L293.6,496.3L293.6,496.3z"/>
	<g>
		<rect x="40.8" y="202" class="st2" width="246.4" height="20"/>
		<rect x="40.8" y="222" class="st3" width="246.4" height="72.6"/>
		<g>
			<g>
				<g>
					<rect x="218.1" y="310.4" class="st2" width="57.6" height="6.7"/>
					<rect x="218.1" y="322.1" class="st2" width="57.6" height="6.7"/>
					<rect x="218.1" y="333.9" class="st2" width="33.7" height="6.7"/>
				</g>
				<rect x="169.2" y="306" class="st4" width="39.1" height="39.1"/>
			</g>
			<g>
				<g>
					<rect x="218.1" y="361.2" class="st2" width="57.6" height="6.7"/>
					<rect x="218.1" y="372.9" class="st2" width="57.6" height="6.7"/>
					<rect x="218.1" y="384.7" class="st2" width="33.7" height="6.7"/>
				</g>
				<rect x="169.2" y="356.8" class="st3" width="39.1" height="39.1"/>
			</g>
			<rect x="52.3" y="306" class="st4" width="104.1" height="89.9"/>
		</g>
		<g>
			<g>
				<g>
					<rect x="218.1" y="411.7" class="st2" width="57.6" height="6.7"/>
					<rect x="218.1" y="423.5" class="st2" width="57.6" height="6.7"/>
					<rect x="218.1" y="435.2" class="st2" width="33.7" height="6.7"/>
				</g>
				<rect x="169.2" y="407.3" class="st4" width="39.1" height="39.1"/>
			</g>
			<g>
				<g>
					<rect x="218.1" y="462.5" class="st2" width="57.6" height="6.7"/>
					<rect x="218.1" y="474.3" class="st2" width="57.6" height="6.7"/>
					<rect x="218.1" y="486" class="st2" width="33.7" height="6.7"/>
				</g>
				<rect x="169.2" y="458.1" class="st3" width="39.1" height="39.1"/>
			</g>
			<rect x="52.3" y="407.3" class="st4" width="104.1" height="89.9"/>
		</g>
		<path class="st5" d="M293.6,172.9H34.4v331h259.2V172.9z M287.2,489.4c0,1.7-0.9,3.1-2,3.1H42.8c-1.1,0-2-1.4-2-3.1V205.8
			c0-1.7,0.9-3.1,2-3.1h242.4c1.1,0,2,1.4,2,3.1V489.4z"/>
		<path class="st6" d="M284.8,196.9H43.1c-1.3,0-2.3-1-2.3-2.3v-8.3c0-1.3,1-2.3,2.3-2.3h241.8c1.3,0,2.3,1,2.3,2.3v8.3
			C287.1,195.8,286.1,196.9,284.8,196.9z"/>
	</g>
	<circle class="st7" cx="164" cy="523.8" r="11.5"/>
</g>
</svg>
