<?xml version="1.0" encoding="utf-8"?>
<!-- Generator: Adobe Illustrator 20.1.0, SVG Export Plug-In . SVG Version: 6.00 Build 0)  -->
<svg version="1.1" id="圖層_1" xmlns="http://www.w3.org/2000/svg" xmlns:xlink="http://www.w3.org/1999/xlink" x="0px" y="0px"
	 viewBox="0 0 600 600" style="enable-background:new 0 0 600 600;" xml:space="preserve">
<style type="text/css">
	.st0{fill:#FFFFFF;}
	.st1{fill:#D4DDDE;}
	.st2{fill:#ABB6B4;}
	.st3{fill:#6EA990;}
	.st4{fill:#6C8EA3;}
	.st5{fill:#DCDDDD;}
	.st6{fill:#ED7777;}
	.st7{fill:#F5DA56;}
	.st8{fill:#80C267;}
	.st9{fill:#595757;}
	.st10{fill:#9FA4A4;}
</style>
<rect x="56.6" y="78.9" class="st0" width="486.9" height="338.1"/>
<g>
	<path class="st1" d="M346.7,446.9c-0.3-0.8-0.6-1.7-0.7-2.5c-0.7-3.9-5.1-6.9-10.4-6.9h-27.9h-9h-27.9c-5.3,0-9.7,3-10.4,6.9
		c-0.1,0.9-0.4,1.7-0.7,2.5l-33.3,80.5c-2,4.9-0.5,10.7,3.9,13.6c1.4,0.9,3.1,1.5,4.8,1.5h63.6h9h63.6c1.7,0,3.4-0.6,4.8-1.5
		c4.4-2.9,6-8.7,3.9-13.6L346.7,446.9z"/>
	<g>
		<rect x="68.6" y="112.3" class="st2" width="462.8" height="20"/>
		<rect x="68.6" y="132.3" class="st3" width="462.8" height="72.6"/>
		<g>
			<g>
				<g>
					<rect x="303.3" y="231.6" class="st2" width="59" height="6.9"/>
					<rect x="303.3" y="243.7" class="st2" width="59" height="6.9"/>
					<rect x="303.3" y="255.7" class="st2" width="34.5" height="6.9"/>
				</g>
				<rect x="253.3" y="227.1" class="st4" width="40" height="40"/>
			</g>
			<g>
				<g>
					<rect x="303.3" y="283.6" class="st2" width="59" height="6.9"/>
					<rect x="303.3" y="295.6" class="st2" width="59" height="6.9"/>
					<rect x="303.3" y="307.7" class="st2" width="34.5" height="6.9"/>
				</g>
				<rect x="253.3" y="279.1" class="st3" width="40" height="40"/>
			</g>
			<g>
				<g>
					<rect x="439.3" y="231.6" class="st2" width="59" height="6.9"/>
					<rect x="439.3" y="243.7" class="st2" width="59" height="6.9"/>
					<rect x="439.3" y="255.7" class="st2" width="34.5" height="6.9"/>
				</g>
				<rect x="389.3" y="227.1" class="st4" width="40" height="40"/>
			</g>
			<g>
				<g>
					<rect x="439.3" y="283.6" class="st2" width="59" height="6.9"/>
					<rect x="439.3" y="295.6" class="st2" width="59" height="6.9"/>
					<rect x="439.3" y="307.7" class="st2" width="34.5" height="6.9"/>
				</g>
				<rect x="389.3" y="279.1" class="st3" width="40" height="40"/>
			</g>
			<rect x="115" y="227.1" class="st4" width="106.5" height="92"/>
		</g>
		<g>
			<g>
				<g>
					<rect x="303.3" y="341" class="st2" width="59" height="6.9"/>
					<rect x="303.3" y="353" class="st2" width="59" height="6.9"/>
					<rect x="303.3" y="365.1" class="st2" width="34.5" height="6.9"/>
				</g>
				<rect x="253.3" y="336.5" class="st4" width="40" height="40"/>
			</g>
			<g>
				<g>
					<rect x="303.3" y="393" class="st2" width="59" height="6.9"/>
					<rect x="303.3" y="405" class="st2" width="59" height="6.9"/>
					<rect x="303.3" y="417" class="st2" width="34.5" height="6.9"/>
				</g>
				<rect x="253.3" y="388.5" class="st3" width="40" height="40"/>
			</g>
			<g>
				<g>
					<rect x="439.3" y="341" class="st2" width="59" height="6.9"/>
					<rect x="439.3" y="353" class="st2" width="59" height="6.9"/>
					<rect x="439.3" y="365.1" class="st2" width="34.5" height="6.9"/>
				</g>
				<rect x="389.3" y="336.5" class="st4" width="40" height="40"/>
			</g>
			<g>
				<g>
					<rect x="439.3" y="393" class="st2" width="59" height="6.9"/>
					<rect x="439.3" y="405" class="st2" width="59" height="6.9"/>
					<rect x="439.3" y="417" class="st2" width="34.5" height="6.9"/>
				</g>
				<rect x="389.3" y="388.5" class="st3" width="40" height="40"/>
			</g>
			<rect x="115" y="336.5" class="st4" width="106.5" height="92"/>
		</g>
		<path class="st5" d="M543.4,82.5H56.6v331h486.9V82.5z M531.4,398.9c0,1.7-1.7,3.1-3.8,3.1H72.4c-2.1,0-3.8-1.4-3.8-3.1V115.4
			c0-1.7,1.7-3.1,3.8-3.1h455.1c2.1,0,3.8,1.4,3.8,3.1V398.9z"/>
		<path class="st0" d="M460.7,104.2H152.5c-1.3,0-2.3-1-2.3-2.3v-8.3c0-1.3,1-2.3,2.3-2.3h308.2c1.3,0,2.3,1,2.3,2.3v8.3
			C463,103.1,462,104.2,460.7,104.2z"/>
		<g>
			<circle class="st6" cx="77.3" cy="97.7" r="4.2"/>
			<circle class="st7" cx="91" cy="97.7" r="4.2"/>
			<circle class="st8" cx="104.8" cy="97.7" r="4.2"/>
		</g>
	</g>
	<path class="st9" d="M560.2,57.5H39.8c-3.5,0-6.3,3.1-6.3,7v380.9c0,3.8,2.8,7,6.3,7h520.3c3.5,0,6.3-3.1,6.3-7V64.4
		C566.5,60.6,563.7,57.5,560.2,57.5z M543.4,406.1c0,3.8-2.8,7-6.3,7H62.9c-3.5,0-6.3-3.1-6.3-7V89.7c0-3.8,2.8-7,6.3-7h474.2
		c3.5,0,6.3,3.1,6.3,7V406.1z"/>
	<path class="st10" d="M224.6,531.6h156.9c0,0,2.9,10.9-10.5,10.9c-13.4,0-135.9,0-135.9,0S224.5,542.3,224.6,531.6z"/>
	<polygon class="st10" points="257.4,452.3 245.4,481.3 360.9,481.3 348.9,452.3 	"/>
</g>
</svg>
